# xmcd CD database file
#
# Track frame offsets:
#	150
#	16102
#	35303
#	54096
#	69698
#	89363
#	105862
#	129994
#	155219
#	176984
#	196455
#	215904
#	234840
#	252420
#	268216
#	285501
#	311331
#
# Disc length: 4377 seconds
#
# Revision: 1
# Processed by: cddbd v1.4PL0 Copyright (c) Steve Scherf et al.
# Submitted via: CDex 1.50Beta7
#
DISCID=ec111711
DTITLE=Various Artist - Celine Dion   A New Day Has Come
DYEAR=1900
DGENRE=
TTITLE0=Celine Dion - I'm Alive (Album Version)
TTITLE1=Celine Dion - Right In Front Of You (Album Version)
TTITLE2=Celine Dion - Have You Ever Been In Love (Album Version)
TTITLE3=Celine Dion - Rain, Tax (It's Inevitable) (Album Version)
TTITLE4=Celine Dion - A New Day Has Come (Radio Remix)
TTITLE5=Celine Dion - Ten Days (Album Version)
TTITLE6=Celine Dion - Goodbye's (The Saddest Word) (Album Version)
TTITLE7=Celine Dion - Prayer (Album Version)
TTITLE8=Celine Dion - I Surrender (Album Version)
TTITLE9=Celine Dion - At Last (Album Version)
TTITLE10=Celine Dion - Super Love (Album Version)
TTITLE11=Celine Dion - Sorry For Love (Album Version)
TTITLE12=Celine Dion - Aun Existe Amor (Album Version)
TTITLE13=Celine Dion - The Greatest Reward (Album Version)
TTITLE14=Celine Dion - When The Wrong One Loves You Right (Album Version)
TTITLE15=Celine Dion - A New Day Has Come (Album Version)
TTITLE16=Celine Dion - Nature Boy (Album Version)
EXTD=
EXTT0=
EXTT1=
EXTT2=
EXTT3=
EXTT4=
EXTT5=
EXTT6=
EXTT7=
EXTT8=
EXTT9=
EXTT10=
EXTT11=
EXTT12=
EXTT13=
EXTT14=
EXTT15=
EXTT16=
PLAYORDER=
